<svg width="90" height="45" viewBox="0 0 120 55" fill="none" xmlns="http://www.w3.org/2000/svg">
<path fill-rule="evenodd" clip-rule="evenodd" d="M16.8591 38.0326C14.1664 38.6055 8.45802 39.5222 6.65594 36.6576C5.46323 34.7566 6.80698 35.5743 4.16114 33.9337C0.275728 31.5118 -0.609689 27.0118 0.364269 23.1732C1.52052 18.5795 5.4476 16.0639 9.7601 14.6732C14.5934 13.1159 19.1195 13.1837 24.0518 12.8659C26.4164 12.7149 28.6299 12.392 31.7861 11.4545C36.8799 9.93887 38.1455 9.0222 43.8122 9.07428C48.1507 9.11595 52.9372 9.61595 57.8122 9.67324C61.9945 9.7097 65.9997 9.25657 70.1247 8.62116C72.5778 8.24616 75.057 7.78782 77.5726 7.25658C79.4059 6.86595 80.7601 6.56387 81.8122 4.83991C82.8903 3.0847 84.5778 2.26178 86.7445 2.18366C87.6716 2.1472 88.6091 2.34512 89.5101 2.3972C91.0153 2.49095 91.6403 2.05866 92.9059 1.35553C94.4789 0.49095 95.182 0.543034 96.9111 0.496158C97.9997 0.454491 99.0882 0.423242 100.192 0.277408C101.307 0.126367 102.213 -0.191342 103.359 0.157616C105.172 0.699283 104.599 1.40762 105.213 2.07949C105.755 2.67324 106.906 2.51699 107.786 3.2097C109.474 4.52741 108.672 6.76699 109.739 7.43366C110.38 7.83991 111.146 7.1472 111.885 6.03782C112.109 6.63678 112.208 7.35553 112.036 7.98053C111.687 9.29303 110.948 8.50658 112.036 9.59512C113.755 11.3087 113.484 12.5691 113.974 13.5587C114.192 14.0066 115.146 14.9285 115.541 15.3764C116.39 16.3451 117.229 17.2462 118.052 18.043C119.151 19.1055 119.547 20.2462 117.937 21.1159C117.198 21.5118 117.552 21.3034 117.083 21.9909C116.713 22.517 116.286 22.8347 115.823 23.0118C114.922 23.3659 113.349 23.3035 112.343 23.2878C111.672 23.2774 110.151 23.3451 109.604 23.7722C108.885 24.3295 109.317 25.4701 110.416 25.0847C111.302 24.7722 111.161 24.2462 112.333 24.9909C113.015 25.4128 113.244 26.0326 113.156 26.6107C113.01 27.5795 112.468 27.2618 112.489 28.5847C112.51 29.6784 112.635 31.0743 110.802 31.1472C108.547 31.2357 109.156 31.4284 108.802 30.0014C108.651 29.392 108.328 29.1212 107.776 29.3347C109.234 32.9441 105.192 31.7566 105.51 34.8555C104.547 34.3764 103.802 33.2878 103.239 31.6784C102.104 33.392 100.718 34.5482 99.458 35.991C99.333 35.2045 99.2028 34.4232 99.0778 33.642C98.6247 35.116 98.3122 36.7514 96.6611 38.0066C95.9111 38.5795 95.9424 38.2097 96.1143 39.1576C96.4268 40.9232 96.5882 42.7878 97.1143 44.1368C97.4945 45.116 98.0361 45.4232 98.5153 46.2566C99.2236 47.491 99.0049 48.3972 99.8226 48.5587C100.724 48.7357 101.38 48.4389 102.369 49.0639C103.005 49.4597 103.583 50.7045 103.791 51.4232C104 52.116 103.922 52.6264 103.687 53.0014C103.057 53.9962 101.672 53.7566 100.656 53.7305C99.7705 53.7097 98.8799 53.6837 97.9945 53.6628C97.1195 53.6368 95.7966 53.7566 95.1143 53.1837C94.2236 52.4389 94.2966 50.9076 93.6039 50.1212C93.1403 49.5847 92.1976 49.5587 91.5049 48.9285C91.1611 48.6212 90.8539 48.1837 90.6247 47.5222C90.208 46.3087 90.3851 46.7149 89.4111 45.8347C88.4997 45.0066 87.6507 44.0691 86.9528 43.0691C86.1455 41.9128 85.7653 40.3139 84.9893 39.4805C84.4997 38.9441 83.9736 38.8139 83.4424 38.7618C82.4059 38.668 81.307 38.6472 80.3799 38.1264C79.6143 37.6941 78.9268 37.0274 78.3903 36.5639C77.6299 35.9076 77.6143 35.9597 76.9476 36.7878C75.7966 38.2097 74.7549 40.7618 73.1403 42.9545C72.5309 43.7722 71.8382 44.4285 71.307 45.3035C70.9111 45.9649 70.6403 46.6316 70.4632 47.293C70.2393 48.1368 69.932 48.6576 70.7549 49.2253C71.0309 49.4076 71.3591 49.6212 71.6507 49.9076C72.083 50.3399 72.5309 50.4649 73.0778 50.6941C73.7757 50.991 74.4945 51.4597 74.4789 52.1732C74.458 53.5795 72.6351 54.0066 71.5466 54.142C68.7289 54.5587 66.7341 54.4076 65.4736 53.616C64.3799 52.9285 64.208 52.1837 64.4632 51.1576C64.6299 50.5014 64.8903 50.3972 65.0257 50.017C65.182 49.5795 64.333 49.7097 64.0153 48.892C63.7861 48.2826 63.8122 47.4232 64.2341 46.1889C64.9736 44.0118 65.0882 43.9701 65.4632 41.6316C65.5309 41.1941 65.6195 40.7566 65.7132 40.3295C66.2341 37.9545 67.0257 35.8034 66.932 34.6264C63.5414 34.918 60.8018 34.991 58.4372 34.241C57.2236 33.8555 55.9424 33.2045 54.6924 32.7566C52.3434 31.9076 51.3434 31.4389 50.1351 34.1368C49.4111 35.7462 49.4736 38.4597 48.2028 40.7253C47.8174 41.4128 47.1872 41.9232 46.9684 42.6107C46.5049 44.0587 47.6664 45.3035 48.6039 46.2462C49.5518 47.1993 50.7028 48.0691 51.807 48.366C52.8226 48.6316 53.9893 48.3503 55.1403 48.5951C56.7289 48.9389 57.6924 50.7982 56.8851 52.1628C56.3955 52.9962 55.3591 53.0326 54.2289 53.0326C52.6664 53.043 51.6039 53.392 50.1351 53.491C49.0257 53.5587 48.2914 53.4389 47.7497 53.0847C46.9945 52.5899 46.2393 51.4337 45.0726 50.6368C43.1872 49.3503 41.8643 48.543 40.0934 47.0274C39.1403 46.2097 38.4007 45.517 37.9893 44.7514C37.2757 43.4441 37.8434 41.9337 37.9372 40.4753C38.0934 38.1889 37.8122 36.4962 36.9789 35.5326C36.6768 35.0639 36.3278 34.8503 35.8486 35.5326C34.8903 36.418 34.0414 36.5326 32.9424 36.4597C30.1091 37.2045 29.9841 39.9701 26.8434 40.9805C24.5153 41.1784 23.2757 44.2566 22.932 47.1264C22.8747 47.5951 22.8434 48.0743 22.8382 48.543C23.0934 49.0899 23.2861 48.5951 23.8747 48.4285C25.807 47.892 28.4632 49.9753 28.1611 52.2722C27.9789 53.6785 26.5257 54.0587 23.4789 54.1785C22.1455 54.2253 21.1716 54.1576 20.4528 53.9753C18.0986 53.4024 18.6351 51.892 18.2341 50.2253C17.7601 48.2774 16.3122 47.7774 16.5361 45.4701C16.6716 44.0482 17.0205 43.3816 16.8539 41.767C16.7028 40.2826 15.6455 39.0639 17.3226 37.9232C17.9528 37.5066 18.7914 37.2774 19.5778 36.9441C19.2809 35.6628 19.6872 33.9232 20.458 31.9962C21.0205 30.5795 21.583 29.2566 22.1351 27.8347C22.7132 26.3295 23.5205 24.9753 24.4789 23.5274C25.3018 22.2774 25.9164 21.3503 26.5882 19.9962C27.1403 18.8712 27.6664 17.7566 28.2809 16.6264C21.7809 16.6837 16.8747 16.6732 13.6976 16.9805C9.26531 17.418 4.21844 19.9962 3.22885 24.7045C2.56739 27.866 4.54656 31.6889 7.77052 32.3555C8.61427 32.5326 9.6299 32.6264 10.5986 32.8139C12.9059 33.2462 15.9841 35.8295 16.8591 38.0326Z" fill="white"/>
<path fill-rule="evenodd" clip-rule="evenodd" d="M32 26.9276V19H34.4082L35.8292 24.4097L37.2352 19H39.6434V26.9276H38.1626L38.1576 20.6852L36.592 26.9276H35.0464L33.4908 20.6852L33.4858 26.9276H32ZM42.3707 22.9588L40.9946 22.7095C41.1491 22.1461 41.4184 21.7323 41.7973 21.463C42.1762 21.1988 42.7396 21.0592 43.4875 21.0592C44.1606 21.0592 44.6692 21.139 45.0033 21.2985C45.3323 21.4581 45.5667 21.6625 45.7013 21.9118C45.8359 22.1611 45.9057 22.6098 45.9057 23.2779L45.8808 25.0429C45.8808 25.5465 45.9057 25.9204 45.9556 26.1598C46.0004 26.3991 46.0902 26.6584 46.2248 26.9276H44.7191C44.6792 26.8329 44.6293 26.6883 44.5745 26.4888C44.5495 26.3991 44.5296 26.3393 44.5196 26.3143C44.2604 26.5636 43.9811 26.7531 43.687 26.8827C43.3928 27.0074 43.0787 27.0722 42.7446 27.0722C42.1563 27.0722 41.6926 26.9126 41.3486 26.5935C41.0095 26.2744 40.84 25.8656 40.84 25.377C40.84 25.0529 40.9198 24.7637 41.0744 24.5094C41.2289 24.2551 41.4433 24.0607 41.7275 23.9261C42.0067 23.7915 42.4056 23.6718 42.9341 23.5721C43.6421 23.4424 44.1357 23.3128 44.4099 23.1981V23.0436C44.4099 22.7494 44.3351 22.54 44.1905 22.4104C44.046 22.2857 43.7717 22.2209 43.3729 22.2209C43.0986 22.2209 42.8892 22.2757 42.7396 22.3854C42.5851 22.4901 42.4654 22.6846 42.3707 22.9588ZM44.4099 24.1853C44.2155 24.2502 43.9064 24.325 43.4825 24.4147C43.0637 24.5044 42.7845 24.5942 42.6549 24.679C42.4604 24.8235 42.3607 24.998 42.3607 25.2174C42.3607 25.4268 42.4405 25.6113 42.5951 25.7659C42.7546 25.9204 42.959 26.0002 43.2033 26.0002C43.4776 26.0002 43.7368 25.9105 43.9861 25.731C44.1706 25.5914 44.2903 25.4268 44.3501 25.2274C44.39 25.0978 44.4099 24.8485 44.4099 24.4845V24.1853ZM52.6716 26.9276H51.2656V26.085C51.0312 26.414 50.752 26.6584 50.4329 26.8279C50.1138 26.9924 49.7897 27.0722 49.4656 27.0722C48.8025 27.0722 48.2391 26.8079 47.7654 26.2744C47.2918 25.7409 47.0574 24.998 47.0574 24.0457C47.0574 23.0685 47.2868 22.3306 47.7455 21.822C48.2042 21.3135 48.7876 21.0592 49.4856 21.0592C50.1288 21.0592 50.6872 21.3284 51.1559 21.8619V19H52.6716V26.9276ZM48.618 23.946C48.618 24.5643 48.7028 25.003 48.8723 25.2773C49.1166 25.6811 49.4607 25.8756 49.8994 25.8756C50.2484 25.8756 50.5426 25.731 50.7869 25.4268C51.0362 25.1277 51.1559 24.6839 51.1559 24.0906C51.1559 23.4325 51.0362 22.9588 50.8019 22.6597C50.5625 22.3655 50.2584 22.2209 49.8894 22.2209C49.5255 22.2209 49.2263 22.3655 48.982 22.6547C48.7427 22.9439 48.618 23.3726 48.618 23.946ZM57.493 25.1127L59.0087 25.367C58.8142 25.9254 58.5051 26.3442 58.0863 26.6384C57.6675 26.9276 57.139 27.0722 56.5107 27.0722C55.5135 27.0722 54.7706 26.7481 54.292 26.0949C53.9131 25.5714 53.7236 24.9083 53.7236 24.1106C53.7236 23.1582 53.9729 22.4104 54.4715 21.8719C54.9651 21.3284 55.5983 21.0592 56.3562 21.0592C57.2088 21.0592 57.8819 21.3434 58.3804 21.9068C58.8691 22.4752 59.1084 23.3377 59.0835 24.5044H55.2842C55.2992 24.9532 55.4188 25.3072 55.6532 25.5565C55.8875 25.8058 56.1767 25.9354 56.5257 25.9354C56.765 25.9354 56.9644 25.8706 57.124 25.7409C57.2835 25.6113 57.4082 25.4019 57.493 25.1127ZM57.5777 23.5721C57.5677 23.1333 57.4531 22.7993 57.2387 22.5699C57.0243 22.3356 56.76 22.2209 56.4509 22.2209C56.1218 22.2209 55.8476 22.3455 55.6332 22.5849C55.4138 22.8292 55.3091 23.1582 55.3141 23.5721H57.5777ZM63.4062 19H64.922V20.406H63.4062V19ZM63.4062 21.1788H64.922V26.9276H63.4062V21.1788ZM71.7128 26.9276H70.1921V24.0009C70.1921 23.3776 70.1622 22.9788 70.0973 22.8042C70.0325 22.6148 69.9228 22.4802 69.7782 22.3804C69.6287 22.2708 69.4542 22.2209 69.2447 22.2209C68.9805 22.2209 68.7412 22.2957 68.5318 22.4403C68.3174 22.5799 68.1728 22.7743 68.098 23.0087C68.0182 23.248 67.9783 23.6868 67.9783 24.3299V26.9276H66.4626V21.1788H67.8686V22.0264C68.3722 21.3783 69.0054 21.0592 69.7732 21.0592C70.1073 21.0592 70.4164 21.119 70.6956 21.2387C70.9749 21.3683 71.1843 21.5179 71.3289 21.7024C71.4734 21.8918 71.5732 22.1012 71.628 22.3406C71.6829 22.5799 71.7128 22.9189 71.7128 23.3627V26.9276ZM76.2848 19H77.8903V26.9276H76.2848V19ZM84.6313 26.9276H83.1155V24.0009C83.1155 23.3776 83.0806 22.9788 83.0158 22.8042C82.951 22.6148 82.8463 22.4802 82.6967 22.3804C82.5521 22.2708 82.3726 22.2209 82.1682 22.2209C81.899 22.2209 81.6646 22.2957 81.4502 22.4403C81.2408 22.5799 81.0963 22.7743 81.0165 23.0087C80.9367 23.248 80.9018 23.6868 80.9018 24.3299V26.9276H79.3811V21.1788H80.7921V22.0264C81.2957 21.3783 81.9289 21.0592 82.6917 21.0592C83.0308 21.0592 83.3399 21.119 83.6141 21.2387C83.8983 21.3683 84.1077 21.5179 84.2473 21.7024C84.3919 21.8918 84.4917 22.1012 84.5465 22.3406C84.6063 22.5799 84.6313 22.9189 84.6313 23.3627V26.9276ZM91.442 26.9276H90.036V26.085C89.8016 26.414 89.5224 26.6584 89.2033 26.8279C88.8842 26.9924 88.5602 27.0722 88.2361 27.0722C87.5729 27.0722 87.0095 26.8079 86.5359 26.2744C86.0622 25.7409 85.8279 24.998 85.8279 24.0457C85.8279 23.0685 86.0572 22.3306 86.5159 21.822C86.9746 21.3135 87.558 21.0592 88.256 21.0592C88.8992 21.0592 89.4576 21.3284 89.9263 21.8619V19H91.442V26.9276ZM87.3885 23.946C87.3885 24.5643 87.4732 25.003 87.6427 25.2773C87.8871 25.6811 88.2311 25.8756 88.6698 25.8756C89.0189 25.8756 89.318 25.731 89.5573 25.4268C89.8066 25.1277 89.9263 24.6839 89.9263 24.0906C89.9263 23.4325 89.8066 22.9588 89.5723 22.6597C89.333 22.3655 89.0288 22.2209 88.6599 22.2209C88.2959 22.2209 87.9967 22.3655 87.7524 22.6547C87.5131 22.9439 87.3885 23.3726 87.3885 23.946ZM92.9378 19H94.4535V20.406H92.9378V19ZM92.9378 21.1788H94.4535V26.9276H92.9378V21.1788ZM97.1459 22.9588L95.7698 22.7095C95.9293 22.1461 96.1936 21.7323 96.5725 21.463C96.9514 21.1988 97.5148 21.0592 98.2627 21.0592C98.9358 21.0592 99.4444 21.139 99.7785 21.2985C100.108 21.4581 100.342 21.6625 100.476 21.9118C100.611 22.1611 100.681 22.6098 100.681 23.2779L100.656 25.0429C100.656 25.5465 100.681 25.9204 100.731 26.1598C100.776 26.3991 100.865 26.6584 101 26.9276H99.4943C99.4544 26.8329 99.4045 26.6883 99.3497 26.4888C99.3247 26.3991 99.3048 26.3393 99.2948 26.3143C99.0356 26.5636 98.7613 26.7531 98.4622 26.8827C98.168 27.0074 97.8539 27.0722 97.5198 27.0722C96.9315 27.0722 96.4678 26.9126 96.1288 26.5935C95.7847 26.2744 95.6152 25.8656 95.6152 25.377C95.6152 25.0529 95.695 24.7637 95.8496 24.5094C96.0041 24.2551 96.2185 24.0607 96.5027 23.9261C96.7819 23.7915 97.1808 23.6718 97.7093 23.5721C98.4173 23.4424 98.9109 23.3128 99.1851 23.1981V23.0436C99.1851 22.7494 99.1103 22.54 98.9657 22.4104C98.8212 22.2857 98.5469 22.2209 98.1481 22.2209C97.8788 22.2209 97.6644 22.2757 97.5149 22.3854C97.3603 22.4901 97.2406 22.6846 97.1459 22.9588ZM99.1851 24.1853C98.9907 24.2502 98.6816 24.325 98.2578 24.4147C97.8389 24.5044 97.5597 24.5942 97.4301 24.679C97.2356 24.8235 97.1359 24.998 97.1359 25.2174C97.1359 25.4268 97.2157 25.6113 97.3703 25.7659C97.5298 25.9204 97.7342 26.0002 97.9785 26.0002C98.2528 26.0002 98.512 25.9105 98.7613 25.731C98.9458 25.5914 99.0655 25.4268 99.1253 25.2274C99.1652 25.0978 99.1851 24.8485 99.1851 24.4845V24.1853Z" fill="#231F20"/>
</svg>
