<svg width="162" height="32" viewBox="0 0 162 32" fill="none" xmlns="http://www.w3.org/2000/svg">
<path d="M35.6473 14.4573L40.9167 21.86H42.6874V22.7773H37.6953L33.322 16.8893L31.8287 18.5533V22.7773H26.666V21.86H28.5007V7.86534H31.8287V13.988L37.4607 7.86534H41.578L35.6473 14.4573ZM59.8812 21.86V22.7773H54.2705L52.8839 19.556H46.6332L45.2465 22.7773H39.6358V21.86H42.0892L48.1479 7.86534H51.3692L57.4065 21.86H59.8812ZM49.7692 12.3027L47.8919 16.6333H51.6252L49.7692 12.3027ZM72.385 21.86V22.7773H57.7077V21.86H63.2544L57.6437 7.86534H61.249L65.0464 17.3587L68.8437 7.86534H72.449L66.817 21.86H72.385ZM90.4645 21.86V22.7773H84.8539L83.4672 19.556H77.2165L75.8299 22.7773H70.2192V21.86H72.6725L78.7312 7.86534H81.9525L87.9899 21.86H90.4645ZM80.3525 12.3027L78.4752 16.6333H82.2085L80.3525 12.3027ZM103.992 21.86V22.7773H88.291V21.86H92.8777C91.7399 21.1916 90.8439 20.2885 90.1897 19.1507C89.5497 17.9987 89.2297 16.6973 89.2297 15.2467C89.2297 13.0565 89.9835 11.2218 91.491 9.74268C93.0128 8.26357 94.8688 7.52401 97.059 7.52401C99.5052 7.52401 101.553 8.45556 103.203 10.3187L101.134 12.6653C100.081 11.3569 98.7728 10.7027 97.2083 10.7027C95.9568 10.7027 94.883 11.1151 93.987 11.94C93.1052 12.7507 92.6643 13.8529 92.6643 15.2467C92.6643 16.6262 93.0839 17.7356 93.923 18.5747C94.7621 19.4138 95.779 19.8333 96.9737 19.8333C98.6092 19.8333 99.9461 19.1862 100.984 17.892L103.118 20.0893C102.492 20.8147 101.788 21.4049 101.006 21.86H103.992ZM120.255 21.86V22.7773H115.093V16.9107H109.162V22.7773H103.999V21.86H105.834V7.86534H109.162V14.0947H115.093V7.86534H118.421V21.86H120.255ZM138.319 21.86V22.7773H132.708L131.321 19.556H125.071L123.684 22.7773H118.073V21.86H120.527L126.585 7.86534H129.807L135.844 21.86H138.319ZM128.207 12.3027L126.329 16.6333H130.063L128.207 12.3027ZM151.335 13.3907L147.303 21.54H145.319L141.308 13.3907V22.7773H135.911V21.86H137.98V7.86534H142.481L146.321 16.0573L150.183 7.86534H154.663V21.86H156.732V22.7773H151.335V13.3907Z" fill="white"/>
<path d="M11.5551 27.9991C8.72364 27.2862 6.38614 25.6616 4.54262 23.1255C2.6991 20.5894 1.77734 17.7732 1.77734 14.6769V7.22135L11.5551 3.55469L21.3329 7.22135V14.6769C21.3329 17.7732 20.4111 20.5894 18.5676 23.1255C16.7241 25.6616 14.3866 27.2862 11.5551 27.9991ZM11.5551 25.4325C13.6736 24.7602 15.4255 23.4158 16.8107 21.3991C18.1959 19.3825 18.8885 17.1417 18.8885 14.6769V8.90191L11.5551 6.15191L4.22179 8.90191V14.6769C4.22179 17.1417 4.91438 19.3825 6.29957 21.3991C7.68475 23.4158 9.4366 24.7602 11.5551 25.4325Z" fill="white"/>
<path d="M11.5551 27.9991C8.72364 27.2862 6.38614 25.6616 4.54262 23.1255C2.6991 20.5894 1.77734 17.7732 1.77734 14.6769V7.22135L11.5551 3.55469L21.3329 7.22135V14.6769C21.3329 17.7732 20.4111 20.5894 18.5676 23.1255C16.7241 25.6616 14.3866 27.2862 11.5551 27.9991ZM11.5551 25.4325C13.6736 24.7602 15.4255 23.4158 16.8107 21.3991C18.1959 19.3825 18.8885 17.1417 18.8885 14.6769V8.90191L11.5551 6.15191L4.22179 8.90191V14.6769C4.22179 17.1417 4.91438 19.3825 6.29957 21.3991C7.68475 23.4158 9.4366 24.7602 11.5551 25.4325Z" fill="white"/>
</svg>
