<svg width="210" height="81" viewBox="0 0 410 81" fill="none" xmlns="http://www.w3.org/2000/svg">
<path d="M90.236 35.44L103.574 54.178H108.056V56.5H95.42L84.35 41.596L80.57 45.808V56.5H67.502V54.178H72.146V18.754H80.57V34.252L94.826 18.754H105.248L90.236 35.44ZM151.578 54.178V56.5H137.376L133.866 48.346H118.044L114.534 56.5H100.332V54.178H106.542L121.878 18.754H130.032L145.314 54.178H151.578ZM125.982 29.986L121.23 40.948H130.68L125.982 29.986ZM183.228 54.178V56.5H146.076V54.178H160.116L145.914 18.754H155.04L164.652 42.784L174.264 18.754H183.39L169.134 54.178H183.228ZM228.992 54.178V56.5H214.79L211.28 48.346H195.458L191.948 56.5H177.746V54.178H183.956L199.292 18.754H207.446L222.728 54.178H228.992ZM203.396 29.986L198.644 40.948H208.094L203.396 29.986ZM263.234 54.178V56.5H223.49V54.178H235.1C232.22 52.486 229.952 50.2 228.296 47.32C226.676 44.404 225.866 41.11 225.866 37.438C225.866 31.894 227.774 27.25 231.59 23.506C235.442 19.762 240.14 17.89 245.684 17.89C251.876 17.89 257.06 20.248 261.236 24.964L255.998 30.904C253.334 27.592 250.022 25.936 246.062 25.936C242.894 25.936 240.176 26.98 237.908 29.068C235.676 31.12 234.56 33.91 234.56 37.438C234.56 40.93 235.622 43.738 237.746 45.862C239.87 47.986 242.444 49.048 245.468 49.048C249.608 49.048 252.992 47.41 255.62 44.134L261.02 49.696C259.436 51.532 257.654 53.026 255.674 54.178H263.234ZM304.4 54.178V56.5H291.332V41.65H276.32V56.5H263.252V54.178H267.896V18.754H276.32V34.522H291.332V18.754H299.756V54.178H304.4ZM350.123 54.178V56.5H335.921L332.411 48.346H316.589L313.079 56.5H298.877V54.178H305.087L320.423 18.754H328.577L343.859 54.178H350.123ZM324.527 29.986L319.775 40.948H329.225L324.527 29.986ZM383.069 32.74L372.863 53.368H367.841L357.689 32.74V56.5H344.027V54.178H349.265V18.754H360.659L370.379 39.49L380.153 18.754H391.493V54.178H396.731V56.5H383.069V32.74Z" fill="white"/>
<path d="M29.702 72C22.4045 70.1625 16.3801 65.9756 11.6288 59.4394C6.87758 52.9031 4.50195 45.645 4.50195 37.665V18.45L29.702 9L54.902 18.45V37.665C54.902 45.645 52.5263 52.9031 47.7751 59.4394C43.0238 65.9756 36.9995 70.1625 29.702 72ZM29.702 15.6937L10.802 22.7812V37.665C10.802 37.9275 10.8151 38.2162 10.8413 38.5312C10.8676 38.8463 10.8807 39.135 10.8807 39.3975L29.702 24.75L48.5232 39.3975C48.5232 39.135 48.5363 38.8463 48.5626 38.5312C48.5888 38.2162 48.602 37.9275 48.602 37.665V22.7812L29.702 15.6937Z" fill="white"/>
</svg>
