<svg width="162" height="33" viewBox="0 0 162 33" fill="none" xmlns="http://www.w3.org/2000/svg">
<path d="M35.6987 14.4459L40.9753 21.8588H42.7484V22.7773H37.7496L33.3702 16.8813L31.8748 18.5475V22.7773H26.7051V21.8588H28.5423V7.84485H31.8748V13.9759L37.5146 7.84485H41.6376L35.6987 14.4459ZM59.9659 21.8588V22.7773H54.3475L52.9589 19.5516H46.6997L45.3111 22.7773H39.6927V21.8588H42.1494L48.2164 7.84485H51.4422L57.4878 21.8588H59.9659ZM49.84 12.2883L47.9601 16.6249H51.6985L49.84 12.2883ZM72.4869 21.8588V22.7773H57.7894V21.8588H63.3437L57.7253 7.84485H61.3356L65.1381 17.3512L68.9407 7.84485H72.551L66.9112 21.8588H72.4869ZM90.5912 21.8588V22.7773H84.9728L83.5843 19.5516H77.325L75.9364 22.7773H70.3181V21.8588H72.7748L78.8418 7.84485H82.0675L88.1131 21.8588H90.5912ZM80.4653 12.2883L78.5854 16.6249H82.3239L80.4653 12.2883ZM104.138 21.8588V22.7773H88.4147V21.8588H93.0077C91.8684 21.1894 90.9711 20.285 90.316 19.1457C89.6751 17.9921 89.3547 16.689 89.3547 15.2363C89.3547 13.0431 90.1095 11.2059 91.6191 9.72476C93.143 8.24362 95.0015 7.50305 97.1948 7.50305C99.6444 7.50305 101.695 8.43588 103.347 10.3016L101.275 12.6515C100.221 11.3412 98.9109 10.6861 97.3443 10.6861C96.091 10.6861 95.0158 11.0991 94.1186 11.9251C93.2356 12.7369 92.7941 13.8406 92.7941 15.2363C92.7941 16.6178 93.2142 17.7286 94.0545 18.5689C94.8947 19.4092 95.913 19.8293 97.1093 19.8293C98.7471 19.8293 100.086 19.1813 101.125 17.8853L103.262 20.0857C102.635 20.812 101.93 21.403 101.147 21.8588H104.138ZM120.423 21.8588V22.7773H115.253V16.9026H109.314V22.7773H104.145V21.8588H105.982V7.84485H109.314V14.0828H115.253V7.84485H118.586V21.8588H120.423ZM138.511 21.8588V22.7773H132.893L131.504 19.5516H125.245L123.856 22.7773H118.238V21.8588H120.695L126.762 7.84485H129.987L136.033 21.8588H138.511ZM128.385 12.2883L126.505 16.6249H130.244L128.385 12.2883ZM151.545 13.3778L147.507 21.5383H145.521L141.504 13.3778V22.7773H136.1V21.8588H138.172V7.84485H142.679L146.525 16.0481L150.391 7.84485H154.877V21.8588H156.95V22.7773H151.545V13.3778Z" fill="white"/>
<path d="M11.5725 28.0366C8.73709 27.3227 6.39638 25.6959 4.55033 23.1563C2.70428 20.6167 1.78125 17.7966 1.78125 14.6961V7.2303L11.5725 3.55859L21.3637 7.2303V14.6961C21.3637 17.7966 20.4406 20.6167 18.5946 23.1563C16.7485 25.6959 14.4078 27.3227 11.5725 28.0366ZM11.5725 25.4664C13.6939 24.7933 15.4481 23.447 16.8352 21.4275C18.2223 19.4081 18.9159 17.1643 18.9159 14.6961V8.91316L11.5725 6.15938L4.22905 8.91316V14.6961C4.22905 17.1643 4.9226 19.4081 6.30968 21.4275C7.69677 23.447 9.45103 24.7933 11.5725 25.4664Z" fill="white"/>
</svg>
